<?xml version="1.0" encoding="UTF-8" standalone="no"?><svg xmlns:rdf="http://www.w3.org/1999/02/22-rdf-syntax-ns#" xmlns="http://www.w3.org/2000/svg" height="48" viewBox="0 0 48 48" width="48" version="1.1" xmlns:cc="http://creativecommons.org/ns#" xmlns:dc="http://purl.org/dc/elements/1.1/"><metadata><rdf:RDF><cc:Work rdf:about=""><dc:format>image/svg+xml</dc:format><dc:type rdf:resource="http://purl.org/dc/dcmitype/StillImage"/><dc:title/></cc:Work></rdf:RDF></metadata>
 <g transform="translate(0 -284.3)">
  <path d="m6.451 285.29h35.098q2.2876 0 4.0196 1.7974 1.4379 1.6667 1.4379 3.6602v35.098q0 1.9936-1.4052 3.6276-1.7647 1.8301-4.0523 1.8301h-35.065q-2.451 0-4.2483-1.9936-1.2418-1.634-1.2418-3.4641v-35.098q0-2.2876 1.7974-4.0196 1.6667-1.4381 3.6602-1.4381z" fill="#1f1f24" stroke="#ffffff" stroke-linejoin="round" stroke-width="0"/>
 </g>
<g transform="matrix(1.5556 0 0 -1.5556 -4 52)"><path d="m19.398 9v8.199h2.7642l0.41381 3.2093h-3.178v2.0441c0 0.92695 0.25741 1.5586 1.5867 1.5586l1.6847 0.00075v2.8619c-0.29314 0.03895-1.2989 0.12608-2.469 0.12608-2.4429 0-4.1153-1.4912-4.1153-4.2297v-2.361h-2.755v-3.21h2.7538v-8.199h3.3128" fill="#ffffff"/></g>
</svg>
