<?xml version="1.0" encoding="UTF-8" standalone="no"?><svg xmlns:rdf="http://www.w3.org/1999/02/22-rdf-syntax-ns#" xmlns="http://www.w3.org/2000/svg" height="48" viewBox="0 0 48 48" width="48" version="1.1" xmlns:cc="http://creativecommons.org/ns#" xmlns:dc="http://purl.org/dc/elements/1.1/"><metadata><rdf:RDF><cc:Work rdf:about=""><dc:format>image/svg+xml</dc:format><dc:type rdf:resource="http://purl.org/dc/dcmitype/StillImage"/><dc:title/></cc:Work></rdf:RDF></metadata>
 <g transform="translate(0 -284.3)">
  <path d="m6.451 285.29h35.098q2.2876 0 4.0196 1.7974 1.4379 1.6667 1.4379 3.6602v35.098q0 1.9936-1.4052 3.6276-1.7647 1.8301-4.0523 1.8301h-35.065q-2.451 0-4.2483-1.9936-1.2418-1.634-1.2418-3.4641v-35.098q0-2.2876 1.7974-4.0196 1.6667-1.4381 3.6602-1.4381z" fill="#1f1f24" stroke="#ffffff" stroke-linejoin="round" stroke-width="0"/>
 </g>
<g transform="matrix(1.3333 0 0 -1.3333 0 48)"><g transform="matrix(.81505 0 0 .81505 -67.678 -12.097)" stroke-width=".75"><path d="m95.333 49.786c-1.715 0-3.0967-1.3878-3.0967-3.0967 0-1.7094 1.3817-3.0967 3.0967-3.0967 1.708 0 3.0952 1.3873 3.0952 3.0967 0 1.7089-1.3872 3.0967-3.0952 3.0967z" fill="#ffffff"/><path d="m111.6 41.673c-2.598 0-4.3402-1.4255-5.0522-2.7759h-0.0732v2.3496h-5.1182v-17.18h5.3335v8.4961c0 2.241 0.42415 4.4136 3.2022 4.4136 2.74 0 2.7744-2.5631 2.7744-4.5557v-8.354h5.3379v9.4219c0 4.6269-0.99929 8.1841-6.4043 8.1841z" fill="#ffffff"/><path d="m92.66 41.246v-17.179h5.3438v17.18z" fill="#ffffff"/></g></g>
</svg>
